<?xml version="1.0" standalone="no"?>
<!DOCTYPE svg PUBLIC "-//W3C//DTD SVG 20010904//EN"
 "http://www.w3.org/TR/2001/REC-SVG-20010904/DTD/svg10.dtd">
<svg version="1.0" xmlns="http://www.w3.org/2000/svg"
 width="176.000000pt" height="176.000000pt" viewBox="0 0 176.000000 176.000000"
 preserveAspectRatio="xMidYMid meet">

<g transform="translate(0.000000,176.000000) scale(0.100000,-0.100000)"
fill="#000000" stroke="none">
<path d="M0 880 l0 -880 880 0 880 0 0 880 0 880 -880 0 -880 0 0 -880z m1039
680 c336 -71 571 -378 548 -719 -7 -104 -25 -169 -79 -281 -34 -70 -57 -101
-132 -175 -99 -98 -165 -139 -290 -180 -102 -33 -284 -36 -391 -5 -299 85
-497 329 -512 631 -13 261 109 501 322 634 83 52 103 61 215 91 106 29 196 30
319 4z"/>
<path d="M730 1504 c-220 -53 -404 -231 -468 -453 -11 -38 -16 -94 -15 -176 0
-107 4 -129 30 -202 41 -114 86 -184 169 -263 86 -81 138 -113 247 -151 70
-25 98 -29 188 -29 193 0 357 72 483 212 177 195 214 471 95 716 -58 121 -168
231 -289 290 -47 23 -112 49 -145 57 -72 18 -219 18 -295 -1z m235 -372 c77
-27 122 -68 158 -145 22 -45 39 -69 54 -73 91 -24 87 -171 -6 -198 -29 -8 -31
-12 -31 -53 0 -52 -33 -93 -75 -93 -18 0 -25 -5 -23 -16 4 -25 -63 -26 -70 -2
-4 16 -17 18 -93 18 -72 0 -89 -3 -89 -15 0 -10 -11 -15 -35 -15 -24 0 -35 5
-35 15 0 9 -9 15 -24 15 -42 0 -70 32 -76 89 -3 28 -8 51 -13 51 -4 0 -21 7
-38 15 -81 42 -66 168 22 190 20 5 28 16 37 52 18 65 91 139 162 163 68 24
111 24 175 2z"/>
<path d="M843 653 c26 -2 68 -2 95 0 26 2 4 3 -48 3 -52 0 -74 -1 -47 -3z"/>
</g>
</svg>
